<?xml version="1.0" encoding="utf-8"?>
<!-- Generator: Adobe Illustrator 21.1.0, SVG Export Plug-In . SVG Version: 6.00 Build 0)  -->
<svg version="1.1" id="Layer_1" xmlns="http://www.w3.org/2000/svg" xmlns:xlink="http://www.w3.org/1999/xlink" x="0px" y="0px"
	 viewBox="0 0 1043.1 183.1" style="enable-background:new 0 0 1043.1 183.1;" xml:space="preserve">
<style type="text/css">
	.st0{fill:url(#SVGID_1_);}
	.st1{fill:#662D91;}
	.st2{fill:#FFFFFF;}
</style>
<title>Asset 1</title>
<g id="Layer_2">
	<g id="Layer_1-2">
		
			<linearGradient id="SVGID_1_" gradientUnits="userSpaceOnUse" x1="-4.4291" y1="232.5174" x2="194.5209" y2="-58.1826" gradientTransform="matrix(1 0 0 -1 0 183.89)">
			<stop  offset="0" style="stop-color:#662D91"/>
			<stop  offset="0.15" style="stop-color:#752B90"/>
			<stop  offset="0.4" style="stop-color:#8A288F"/>
			<stop  offset="0.57" style="stop-color:#92278F"/>
			<stop  offset="0.82" style="stop-color:#752B90"/>
			<stop  offset="1" style="stop-color:#662D91"/>
		</linearGradient>
		<path class="st0" d="M157.7,180.9l-55.4-31c-6.7-3.7-14.9-3.7-21.6,0l-55.4,31c-8.2,4.6-18.6,1.7-23.1-6.5
			C0.7,171.8,0,169,0,166.1V17C0,7.6,7.6,0,17,0h149c9.4,0,17,7.6,17,17v149.1c0,9.4-7.6,17-17,17
			C163.1,183.1,160.2,182.3,157.7,180.9z"/>
		<path class="st1" d="M142.6,83.7L73.1,45c-4.1-2.3-9.3-0.8-11.6,3.3c-0.7,1.3-1.1,2.7-1.1,4.1v77.3c0,4.7,3.8,8.5,8.5,8.5
			c1.5,0,2.9-0.4,4.1-1.1l69.5-38.7c4.1-2.3,5.6-7.5,3.3-11.6C145.1,85.6,144,84.4,142.6,83.7z"/>
		<path class="st1" d="M347.6,102.6c0.8,7.2,0.1,14.5-1.8,21.5c-1.6,5.9-5,11.1-9.7,15c-4.6,3.6-10.9,5.4-18.8,5.4
			c-8.7,0-15.8-2.3-21.5-6.9c-5.7-4.6-9.9-11.1-12.7-19.4c-2.8-8.4-4.1-18.3-4.1-29.7c-0.1-7.8,0.7-15.6,2.3-23.2
			c1.2-5.9,3.6-11.6,6.8-16.7c2.8-4.3,6.6-7.8,11.1-10.1c4.7-2.3,9.9-3.5,15.2-3.4c6.7,0,12.3,1.5,16.7,4.4c4.5,3,8,7.4,9.9,12.5
			c2.2,5.3,3.1,11.7,2.7,19.2l38.6-4.7c1.1-8.3,0.5-16.8-1.6-24.9c-2-7.8-5.9-15.1-11.3-21.1c-5.4-6.1-12.7-11-21.7-14.5
			s-19.7-5.3-32.2-5.3c-14.4,0-26.6,2.3-36.8,7c-9.8,4.3-18.3,11-25,19.3c-6.6,8.5-11.6,18.3-14.4,28.7c-3.2,11.3-4.7,23-4.7,34.8
			c-0.1,11.4,1.5,22.8,4.5,33.8c2.9,10.3,7.8,20,14.4,28.4c6.8,8.5,15.5,15.1,25.4,19.5c10.4,4.7,22.8,7,37.4,7
			c13.7,0,25.2-2,34.6-6c9.4-4,17-9.4,22.6-16.3c5.6-6.9,9.6-14.9,11.7-23.5c2.2-8.9,2.8-18.2,2-27.4L347.6,102.6z"/>
		<polygon class="st1" points="444.1,4.2 402,4.2 402,175.5 409.3,175.5 444.1,175.5 509.2,175.5 509.2,139.7 444.1,139.7 		"/>
		<rect x="521.4" y="4.2" class="st1" width="42.3" height="171.2"/>
		<path class="st1" d="M702.3,18.8c-6.6-5.1-14.1-8.9-22.2-11c-9-2.4-18.2-3.6-27.5-3.5h-68.2v171.2h42v-48.5h17.6
			c16.8,0,31-2.3,42.5-6.9c11.6-4.6,20.5-11.5,26.6-20.6s9.2-20.6,9.2-34.2c0-10.7-1.8-19.9-5.3-27.5
			C713.7,30.3,708.7,23.8,702.3,18.8z M671.3,86.9c-5.2,4.2-13.1,6.4-23.6,6.4h-21.3V38h23.9c9.7,0,16.9,2.3,21.7,6.9
			s7.1,11.5,7.1,20.9C679.1,75.6,676.5,82.6,671.3,86.9L671.3,86.9z"/>
		<path class="st1" d="M854.3,18.8c-6.6-5.1-14.1-8.9-22.2-11c-9-2.4-18.2-3.6-27.5-3.5h-68.2v171.2h42v-48.5h17.7
			c16.8,0,31-2.3,42.5-6.9s20.5-11.5,26.6-20.6s9.2-20.6,9.2-34.2c0-10.7-1.8-19.9-5.3-27.5C865.7,30.3,860.7,23.8,854.3,18.8z
			 M823.3,86.9c-5.2,4.2-13.1,6.4-23.6,6.4h-21.3V38h23.9c9.7,0,16.9,2.3,21.7,6.9s7.1,11.5,7.1,20.9
			C831.1,75.6,828.5,82.6,823.3,86.9L823.3,86.9z"/>
		<path class="st1" d="M1037.7,50.8c-3.5-11.2-8.7-20.5-15.4-27.9c-6.7-7.4-15.1-13.2-24.5-16.7c-9.6-3.7-20.4-5.6-32.5-5.6
			c-15.7,0-29.6,3.3-41.6,9.9c-12,6.6-21.4,16.5-28,29.7c-6.7,13.2-10,30.1-10,50.5c0,14.4,1.8,27.1,5.3,38.1
			c3.5,11.1,8.7,20.3,15.4,27.8c6.8,7.5,15.2,13.2,24.6,16.9c10.4,3.9,21.5,5.9,32.7,5.7c11.1,0.1,22.1-1.7,32.6-5.6
			c9.6-3.6,18.2-9.3,25.2-16.7c7-7.4,12.4-16.8,16.1-28s5.6-24.3,5.6-39.2C1043.1,74.9,1041.3,62,1037.7,50.8z M996,121.1
			c-2.5,7.9-6.3,13.8-11.4,17.6s-11.5,5.8-19.3,5.8c-5.5,0.1-10.9-1-15.8-3.4c-4.6-2.3-8.5-5.9-11.3-10.2
			c-3.3-5.3-5.6-11.1-6.7-17.3c-1.6-7.9-2.3-16-2.2-24.1c0-12.1,1.3-22.2,3.9-30.3c2.6-8.1,6.5-14.2,11.7-18.3
			c5.2-4.1,11.6-6.1,19.2-6.1c8,0,14.6,2.1,19.8,6.4c5.3,4.2,9.3,10.5,11.9,18.8c2.7,8.3,4,18.8,4,31.4
			C999.7,103.3,998.5,113.2,996,121.1z"/>
		<path class="st2" d="M130.5,71.5L61,32.9c-4.1-2.3-9.3-0.8-11.6,3.3c-0.7,1.3-1.1,2.7-1.1,4.1v77.3c0,4.7,3.8,8.5,8.5,8.5
			c1.5,0,2.9-0.4,4.1-1.1l69.5-38.7c4.1-2.3,5.6-7.5,3.3-11.6C133,73.5,131.9,72.3,130.5,71.5z"/>
	</g>
</g>
</svg>
