<?xml version="1.0" encoding="utf-8"?>
<!-- Generator: Adobe Illustrator 21.1.0, SVG Export Plug-In . SVG Version: 6.00 Build 0)  -->
<svg version="1.1" id="Layer_1" xmlns="http://www.w3.org/2000/svg" xmlns:xlink="http://www.w3.org/1999/xlink" x="0px" y="0px"
	 viewBox="0 0 183 183.1" style="enable-background:new 0 0 183 183.1;" xml:space="preserve">
<style type="text/css">
	.st0{fill:url(#SVGID_1_);}
	.st1{fill:#662D91;}
	.st2{fill:#FFFFFF;}
</style>
<title>Asset 1</title>
<g id="Layer_2">
	<g id="Layer_1-2">
		
			<linearGradient id="SVGID_1_" gradientUnits="userSpaceOnUse" x1="-4.4231" y1="609.3685" x2="194.5269" y2="900.0685" gradientTransform="matrix(1 0 0 1 0 -658)">
			<stop  offset="0" style="stop-color:#662D91"/>
			<stop  offset="0.15" style="stop-color:#752B90"/>
			<stop  offset="0.4" style="stop-color:#8A288F"/>
			<stop  offset="0.57" style="stop-color:#92278F"/>
			<stop  offset="0.82" style="stop-color:#752B90"/>
			<stop  offset="1" style="stop-color:#662D91"/>
		</linearGradient>
		<path class="st0" d="M157.7,180.9l-55.4-31c-6.7-3.7-14.9-3.7-21.6,0l-55.4,31c-8.2,4.6-18.6,1.7-23.1-6.5
			C0.7,171.8,0,169,0,166.1V17C0,7.6,7.6,0,17,0h149c9.4,0,17,7.6,17,17v149.1c0,9.4-7.6,17-17,17
			C163.1,183.1,160.2,182.3,157.7,180.9z"/>
		<path class="st1" d="M142.6,83.7L73.1,45c-4.1-2.3-9.3-0.8-11.6,3.3c-0.7,1.3-1.1,2.7-1.1,4.1v77.3c0,4.7,3.8,8.5,8.5,8.5
			c1.5,0,2.9-0.4,4.1-1.1l69.5-38.7c4.1-2.3,5.6-7.5,3.3-11.6C145.1,85.6,144,84.4,142.6,83.7z"/>
		<path class="st2" d="M130.5,71.5L61,32.9c-4.1-2.3-9.3-0.8-11.6,3.3c-0.7,1.3-1.1,2.7-1.1,4.1v77.3c0,4.7,3.8,8.5,8.5,8.5
			c1.5,0,2.9-0.4,4.1-1.1l69.5-38.7c4.1-2.3,5.6-7.5,3.3-11.6C133,73.5,131.9,72.3,130.5,71.5z"/>
	</g>
</g>
</svg>
